<?xml version="1.0" encoding="UTF-8"?>
<svg id="Layer_1" data-name="Layer 1" xmlns="http://www.w3.org/2000/svg" viewBox="0 0 101.45 100.44">
  <defs>
    <style>
      .cls-1 {
        fill: #231f20;
        stroke-width: 0px;
      }
    </style>
  </defs>
  <path class="cls-1" d="m96.23,75.48h-12.6v-9.47h8.91v5.85h8.42v-7.73c0-3.41-1.74-5.08-5.22-5.08h-12.04v-11.14h-9.33v11.14h-11.83l-7.38,15.73v-38.35h-9.4v55.89l-1.68.17v-56.03h-8.98s-10.3,37.52-10.3,38.21c-.07-1.6-10.3-38.21-10.3-38.21H5.52v63.83h9.19v-31.46c0-1.6-.21-3.9-.56-6.96l8.21,32.57h4.87l7.59-29.86v30.76c0,.42,0,.84.07,1.18.35,2.16,1.53,3.41,3.62,3.76.42.07.9.14,1.46.14,1.67,0,5.79-.17,5.79-.17h9.4v-18.86l8.14,18.86h20.39s11.21.14,12.67.14c3.41,0,5.08-1.67,5.08-5.01v-14.83c0-3.41-1.74-5.08-5.22-5.08Zm-26.73,16.84l-6.75-14.41,6.54-12.88h5.01l.07,27.28h-4.87Zm23.04.84l-8.84-.35h-.07v-11.07h8.91v11.41Z"/>
  <path class="cls-1" d="m80.2,80.84v11.07h.07l-.07-11.07Z"/>
</svg>